<svg xmlns="http://www.w3.org/2000/svg" fill="none" viewBox="0 0 102 30"><path fill="#002e3e" fill-rule="evenodd" d="M31.49 30v-7.833h3.246V30" clip-rule="evenodd"/><path fill="#002e3e" fill-rule="evenodd" d="M42.19 14.493c0-.141.01-.291.01-.432C42.2 6.342 35.849 0 28.13 0a14.08 14.08 0 0 0-11.935 6.616 12 12 0 0 0-4.137-.732C5.443 5.884 0 11.326 0 17.942s5.24 11.855 11.697 12.05v-10.78h-.838a.759.759 0 1 1 0-1.517h3.325v-6.157h-.847a.754.754 0 0 1-.714-.75c0-.397.317-.732.714-.758h25.246c.362.061.644.379.644.758a.754.754 0 0 1-.714.75h-.847v6.157h3.316c.415 0 .759.344.759.759a.764.764 0 0 1-.759.758h-.846v10.78h.979c4.278 0 7.789-3.52 7.789-7.79 0-3.872-2.885-7.189-6.722-7.718" clip-rule="evenodd"/><path fill="#002e3e" d="M22.343 25.413v-3.246h-8.15v3.246zM34.736 16.256V13.01H31.49v3.246zM30.123 16.256V13.01h-3.246v3.246zM25.536 16.256V13.01H15.532v3.246z"/><path fill="#002e3e" fill-rule="evenodd" d="M83.667 12.111V4.058h2.823c.423 0 .847.035 1.252.132.336.07.653.212.935.406.247.176.45.414.583.688.14.308.203.644.194.979 0 .176-.027.362-.07.53a1.7 1.7 0 0 1-.565.872 1.9 1.9 0 0 1-.494.3c.211.053.423.141.608.265.318.22.556.556.653.935.053.185.08.388.08.582 0 .785-.248 1.376-.76 1.773-.502.397-1.217.6-2.152.6h-3.087zm1.658-4.684h1.227c.335.018.67-.07.943-.264a.9.9 0 0 0 .31-.733.92.92 0 0 0-.318-.785q-.33-.238-1.006-.238h-1.156v2.03zm0 1.173v2.18h1.43q.277 0 .555-.08c.141-.044.274-.124.388-.22a.74.74 0 0 0 .23-.336c.053-.132.079-.273.079-.414a1.4 1.4 0 0 0-.07-.468 1 1 0 0 0-.203-.353.8.8 0 0 0-.362-.212 1.9 1.9 0 0 0-.538-.079h-1.49z" clip-rule="evenodd"/><path fill="#002e3e" d="M63.767 12.111h1.658V4.058h-1.658v5.31l-3.238-5.31h-1.658v8.053h1.658V6.81z"/><path fill="#002e3e" fill-rule="evenodd" d="M73.143 10.453h2.911l.556 1.658h1.782l-3.017-8.053h-1.543l-3.008 8.062h1.764l.555-1.658zm2.462-1.35h-2.012L74.6 6.086l1.014 3.017z" clip-rule="evenodd"/><path fill="#002e3e" d="M101.53 9.377v-5.32h-1.65v5.32c0 .538-.123.917-.37 1.155a1.696 1.696 0 0 1-2.1 0c-.264-.247-.388-.626-.388-1.155v-5.32h-1.658v5.32c-.009.423.07.838.23 1.235.14.344.361.644.643.89a2.6 2.6 0 0 0 .98.539 4.4 4.4 0 0 0 2.478 0c.353-.115.688-.3.97-.538.274-.247.494-.556.644-.891.159-.389.239-.812.23-1.235M65.407 23.146a3.4 3.4 0 0 1-.274 1.13c-.15.335-.37.635-.644.882a2.9 2.9 0 0 1-.997.582 3.8 3.8 0 0 1-1.331.212c-.477 0-.953-.08-1.394-.265a2.9 2.9 0 0 1-1.05-.776 3.6 3.6 0 0 1-.661-1.218 5.2 5.2 0 0 1-.23-1.605v-.53c0-.546.07-1.084.238-1.614.141-.45.37-.864.67-1.226.292-.335.645-.6 1.06-.776a3.4 3.4 0 0 1 1.384-.273c.45 0 .9.061 1.332.211.362.133.697.327.98.591.264.256.484.565.626.9.158.362.255.75.29 1.138h-1.658a2.5 2.5 0 0 0-.123-.635 1.4 1.4 0 0 0-.282-.468 1.1 1.1 0 0 0-.468-.282 2 2 0 0 0-.697-.097 1.43 1.43 0 0 0-1.252.609c-.274.405-.415 1.04-.415 1.896v.538c0 .37.026.732.088 1.094.044.273.15.547.291.785.124.203.3.362.512.468.238.114.494.167.758.158.23 0 .46-.026.68-.088.176-.053.344-.141.476-.264s.23-.283.3-.45c.07-.203.123-.415.132-.627z"/><path fill="#002e3e" fill-rule="evenodd" d="M72.675 24.17h2.902l.573 1.666h1.764l-3.016-8.053h-1.544l-3 8.053h1.765l.556-1.658zm2.443-1.36h-2.011l1.006-3.016 1.014 3.017z" clip-rule="evenodd"/><path fill="#002e3e" d="M87.362 23.72q.002-.2-.062-.388a.75.75 0 0 0-.238-.309 2.2 2.2 0 0 0-.477-.273 6 6 0 0 0-.794-.291 11 11 0 0 1-1.04-.397 3.8 3.8 0 0 1-.856-.52 2.3 2.3 0 0 1-.582-.698c-.15-.282-.22-.6-.212-.917 0-.317.07-.635.22-.917s.362-.52.618-.715c.282-.203.6-.362.944-.459a4 4 0 0 1 1.2-.158c.414 0 .829.061 1.217.194.344.114.661.282.935.52.256.212.459.485.6.785q.21.479.211.997h-1.658q0-.24-.08-.468a.94.94 0 0 0-.246-.37 1.1 1.1 0 0 0-.415-.238 1.8 1.8 0 0 0-.582-.088c-.194 0-.38.017-.565.07a1.1 1.1 0 0 0-.397.194 1 1 0 0 0-.238.3.9.9 0 0 0-.08.362c0 .282.168.53.407.67.37.22.776.388 1.19.503q.595.185 1.165.45c.3.141.582.335.838.564.212.195.388.441.503.706.114.282.176.582.167.891 0 .327-.062.653-.203.944a2 2 0 0 1-.582.706 3 3 0 0 1-.926.44 4.2 4.2 0 0 1-1.2.15c-.264 0-.529-.026-.794-.07a3.7 3.7 0 0 1-.758-.212 3 3 0 0 1-.67-.361 2.5 2.5 0 0 1-.539-.512 2.3 2.3 0 0 1-.361-.67 2.6 2.6 0 0 1-.133-.83h1.668c0 .212.035.424.114.618.07.159.185.3.326.415.15.105.318.185.503.229.212.053.433.07.653.07.185 0 .38-.017.556-.07.14-.044.273-.106.388-.194a.8.8 0 0 0 .23-.291q.063-.174.061-.362"/><path fill="#002e3e" fill-rule="evenodd" d="M96.333 24.17h2.91l.565 1.666h1.765l-3.017-8.053h-1.544l-2.999 8.053h1.764l.556-1.658zm2.461-1.36h-2.011l.997-3.016z" clip-rule="evenodd"/></svg>